<svg width="98" height="98" viewBox="0 0 98 98" fill="none" xmlns="http://www.w3.org/2000/svg">
<path d="M87.2812 28.9311L75.0312 35.9844V21.4375C75.0312 18.0592 72.2846 15.3125 68.9062 15.3125H12.25C8.87168 15.3125 6.125 18.0592 6.125 21.4375V76.5625C6.125 79.9408 8.87168 82.6875 12.25 82.6875H68.9062C72.2846 82.6875 75.0312 79.9408 75.0312 76.5625V62.0156L87.2812 69.0689C89.3197 70.2461 91.875 68.7723 91.875 66.4275V31.582C91.875 29.2277 89.3197 27.7539 87.2812 28.9311ZM68.1406 75.7969H13.0156V22.2031H68.1406V75.7969ZM84.9844 59.8145L75.0312 54.0914V43.9182L84.9844 38.1855V59.8145ZM19.9062 34.4531H30.625C31.0461 34.4531 31.3906 34.1086 31.3906 33.6875V29.0938C31.3906 28.6727 31.0461 28.3281 30.625 28.3281H19.9062C19.4852 28.3281 19.1406 28.6727 19.1406 29.0938V33.6875C19.1406 34.1086 19.4852 34.4531 19.9062 34.4531Z" fill="black"/>
</svg>
