<svg width="82" height="82" viewBox="0 0 82 82" fill="none" xmlns="http://www.w3.org/2000/svg">
<path d="M20.5 39.6561V61.5H42.3439L37.7883 56.9444H25.0556V44.2116L20.5 39.6561Z" fill="#525252"/>
<path d="M79.4263 73.5495L72.889 66.9211V72.8889H9.11126V63.4361H13.6668V59.7917H9.11126V44.6445H13.6668V41H9.11126V26.4222H13.6668V22.7778H9.11126V10.045L45.419 46.1478V39.7245L8.4507 2.93836C8.13211 2.61713 7.72507 2.39805 7.28148 2.30906C6.83788 2.22006 6.37784 2.26519 5.95999 2.43868C5.54215 2.61217 5.18544 2.90617 4.93533 3.28318C4.68523 3.6602 4.55307 4.10316 4.5557 4.55558V75.1667C4.5557 75.7708 4.79568 76.3502 5.22285 76.7773C5.65001 77.2045 6.22938 77.4445 6.83348 77.4445H77.809C78.2615 77.4471 78.7044 77.3149 79.0814 77.0648C79.4585 76.8147 79.7524 76.458 79.9259 76.0402C80.0994 75.6223 80.1446 75.1623 80.0556 74.7187C79.9666 74.2751 79.7475 73.8681 79.4263 73.5495Z" fill="#525252"/>
<path d="M54.6669 68.3333H63.778C64.9862 68.3333 66.1449 67.8533 66.9993 66.999C67.8536 66.1447 68.3335 64.9859 68.3335 63.7777V19.8166L63.0947 10.1816C62.6895 9.47967 62.1044 8.89851 61.3997 8.49811C60.695 8.09771 59.8962 7.89257 59.0858 7.90385C58.257 7.91043 57.4457 8.14298 56.7393 8.57646C56.0329 9.00994 55.4581 9.62793 55.0769 10.3639L50.1113 19.8622V63.7777C50.1113 64.9859 50.5913 66.1447 51.4456 66.999C52.3 67.8533 53.4587 68.3333 54.6669 68.3333ZM54.6669 20.9555L59.0858 12.3683L63.778 20.9783V54.6666H54.6669V20.9555ZM54.6669 58.3794H63.778V63.9372H54.6669V58.3794Z" fill="#525252"/>
</svg>
