<svg width="139" height="139" viewBox="0 0 139 139" fill="none" xmlns="http://www.w3.org/2000/svg">
<path d="M46.119 70.787H22.9523C19.7669 70.787 17.1606 68.1808 17.1606 64.9954C17.1606 61.81 19.7669 59.2037 22.9523 59.2037H46.119C49.3044 59.2037 51.9106 61.81 51.9106 64.9954C51.9106 68.1808 49.3044 70.787 46.119 70.787ZM40.3273 41.8287C40.3273 38.6433 37.7211 36.037 34.5356 36.037H28.744C25.5586 36.037 22.9523 38.6433 22.9523 41.8287C22.9523 45.0141 25.5586 47.6204 28.744 47.6204H34.5356C37.7211 47.6204 40.3273 45.0141 40.3273 41.8287ZM132.994 64.9954C132.994 80.9804 120.021 93.9537 104.036 93.9537H28.744C25.5586 93.9537 22.9523 91.3475 22.9523 88.162C22.9523 84.9766 25.5586 82.3704 28.744 82.3704H80.869C78.4365 79.0112 76.5252 75.0729 75.6565 70.787H63.494C60.3086 70.787 57.7023 68.1808 57.7023 64.9954C57.7023 61.81 60.3086 59.2037 63.494 59.2037H75.6565C76.5252 54.9179 78.4365 50.9795 80.869 47.6204H51.9106C48.7252 47.6204 46.119 45.0141 46.119 41.8287C46.119 38.6433 48.7252 36.037 51.9106 36.037H104.036C120.021 36.037 132.994 49.0104 132.994 64.9954Z" fill="black"/>
</svg>
