<svg width="87" height="87" viewBox="0 0 87 87" fill="none" xmlns="http://www.w3.org/2000/svg">
<path d="M84.7568 27.379C81.7756 24.3976 76.9245 24.3977 73.9422 27.3797C73.0249 28.2978 67.1686 34.1589 66.2739 35.0544V14.8556C66.2739 12.8131 65.4785 10.893 64.0342 9.44885L56.8253 2.23957C55.3811 0.795234 53.4608 0 51.4183 0H7.65088C3.43461 0 0.00439453 3.43021 0.00439453 7.64648V79.3535C0.00439453 83.5698 3.43461 87 7.65088 87H58.6274C62.8437 87 66.2739 83.5698 66.2739 79.3535V56.6912L84.7567 38.1928C87.7451 35.2046 87.7458 30.3676 84.7568 27.379ZM50.9811 5.09766C51.4627 5.09766 52.3906 5.01423 53.2207 5.84412L60.4298 13.0534C61.2386 13.8624 61.1764 14.7489 61.1764 15.293H50.9811V5.09766ZM61.1763 79.3535C61.1763 80.7589 60.033 81.9023 58.6274 81.9023H7.65088C6.24546 81.9023 5.10205 80.7589 5.10205 79.3535V7.64648C5.10205 6.24106 6.24546 5.09766 7.65088 5.09766H45.8833V17.8418C45.8833 19.2494 47.0245 20.3906 48.4321 20.3906H61.1763V40.1564C61.1763 40.1564 53.6566 47.6826 53.6562 47.6828L50.0534 51.2858C49.7737 51.5655 49.5626 51.9067 49.4376 52.2821L45.8328 63.0959C45.5275 64.0118 45.7659 65.0216 46.4486 65.7042C47.1322 66.3878 48.1424 66.625 49.0569 66.32L59.8708 62.7154C60.2461 62.5904 60.5873 62.3795 60.867 62.0996L61.1763 61.7904V79.3535ZM55.4601 53.0882L59.0647 56.6927L57.6878 58.0696L52.281 59.8718L54.0832 54.4649L55.4601 53.0882ZM62.6685 53.0873L59.064 49.4828C60.9834 47.5618 69.5082 39.0297 71.3162 37.2202L74.9207 40.8247L62.6685 53.0873ZM81.1514 34.589L78.5239 37.2187L74.9194 33.6141L77.5477 30.9836C78.5421 29.9897 80.1588 29.9899 81.1525 30.9836C82.146 31.9776 82.1513 33.589 81.1514 34.589Z" fill="#525252"/>
<path d="M48.4307 25.4883H12.7471C11.3394 25.4883 10.1982 26.6295 10.1982 28.0371C10.1982 29.4447 11.3394 30.5859 12.7471 30.5859H48.4307C49.8383 30.5859 50.9795 29.4447 50.9795 28.0371C50.9795 26.6295 49.8383 25.4883 48.4307 25.4883Z" fill="#525252"/>
<path d="M38.2353 35.6836H12.7471C11.3394 35.6836 10.1982 36.8248 10.1982 38.2324C10.1982 39.6401 11.3394 40.7812 12.7471 40.7812H38.2353C39.643 40.7812 40.7842 39.6401 40.7842 38.2324C40.7842 36.8248 39.643 35.6836 38.2353 35.6836Z" fill="#525252"/>
<path d="M38.2353 45.8789H12.7471C11.3394 45.8789 10.1982 47.0201 10.1982 48.4277C10.1982 49.8354 11.3394 50.9766 12.7471 50.9766H38.2353C39.643 50.9766 40.7842 49.8354 40.7842 48.4277C40.7842 47.0201 39.643 45.8789 38.2353 45.8789Z" fill="#525252"/>
<path d="M38.2353 56.0742H12.7471C11.3394 56.0742 10.1982 57.2154 10.1982 58.623C10.1982 60.0307 11.3394 61.1719 12.7471 61.1719H38.2353C39.643 61.1719 40.7842 60.0307 40.7842 58.623C40.7842 57.2154 39.643 56.0742 38.2353 56.0742Z" fill="#525252"/>
<path d="M48.4307 71.707H33.1377C31.7301 71.707 30.5889 72.8482 30.5889 74.2559C30.5889 75.6635 31.7301 76.8047 33.1377 76.8047H48.4307C49.8383 76.8047 50.9795 75.6635 50.9795 74.2559C50.9795 72.8482 49.8383 71.707 48.4307 71.707Z" fill="#525252"/>
</svg>
