<svg width="99" height="99" viewBox="0 0 99 99" fill="none" xmlns="http://www.w3.org/2000/svg">
<g clip-path="url(#clip0)">
<path d="M80.4375 15.4688C80.4375 13.0072 81.4153 10.6465 83.1559 8.90592C84.8965 7.16534 87.2572 6.1875 89.7188 6.1875C92.1803 6.1875 94.541 7.16534 96.2816 8.90592C98.0222 10.6465 99 13.0072 99 15.4688V83.5312C99 85.9928 98.0222 88.3535 96.2816 90.0941C94.541 91.8347 92.1803 92.8125 89.7188 92.8125C87.2572 92.8125 84.8965 91.8347 83.1559 90.0941C81.4153 88.3535 80.4375 85.9928 80.4375 83.5312V82.2071C67.0601 74.5284 52.6556 70.8036 37.6695 69.3186L40.1754 86.0991C40.3437 86.993 40.3128 87.9131 40.0849 88.7938C39.8571 89.6745 39.4378 90.4941 38.857 91.1942C38.2762 91.8943 37.5482 92.4578 36.7248 92.8445C35.9013 93.2311 35.0028 93.4315 34.0931 93.4313H30.7024C29.4997 93.4312 28.323 93.0805 27.3164 92.4223C26.3099 91.7641 25.5169 90.8267 25.0346 89.7249L13.5878 68.1306C13.1711 68.1238 12.7545 68.1176 12.3379 68.112C9.06076 68.0795 5.92837 66.7573 3.6191 64.4318C1.30984 62.1063 0.00960204 58.9648 0 55.6875L0 43.3125C0.0110433 40.0349 1.30909 36.8928 3.61451 34.5631C5.91993 32.2334 9.04823 30.9025 12.3255 30.8571C17.4489 30.7876 22.5708 30.6329 27.6891 30.393C46.5176 29.4401 65.7298 25.1398 80.4375 16.7867V15.4688ZM86.625 15.4688V83.5312C86.625 84.3518 86.9509 85.1387 87.5311 85.7189C88.1113 86.2991 88.8982 86.625 89.7188 86.625C90.5393 86.625 91.3262 86.2991 91.9064 85.7189C92.4866 85.1387 92.8125 84.3518 92.8125 83.5312V15.4688C92.8125 14.6482 92.4866 13.8613 91.9064 13.2811C91.3262 12.7009 90.5393 12.375 89.7188 12.375C88.8982 12.375 88.1113 12.7009 87.5311 13.2811C86.9509 13.8613 86.625 14.6482 86.625 15.4688ZM80.4375 23.8219C65.934 31.2778 48.2068 35.2192 30.9375 36.4011V62.5928C32.0513 62.6546 33.1588 62.7289 34.2602 62.8155C50.1497 63.9849 65.7731 67.419 80.4375 75.1472V23.8219ZM24.75 62.2772V36.7228C20.6427 36.8731 16.534 36.9804 12.4245 37.0446C10.771 37.064 9.19122 37.7316 8.02485 38.9037C6.85848 40.0759 6.19873 41.659 6.1875 43.3125V55.6875C6.1875 59.0906 8.9595 61.8874 12.4121 61.9307C16.5264 61.9784 20.6396 62.0939 24.75 62.2772ZM20.6848 68.31L30.6405 87.1014L30.7024 87.2499H34.0931L34.0807 87.1633L31.3397 68.8112C27.7903 68.5971 24.2384 68.4279 20.6848 68.3038V68.31Z" fill="black"/>
</g>
<defs>
<clipPath id="clip0">
<rect width="99" height="99" fill="white"/>
</clipPath>
</defs>
</svg>
